<mxfile host="app.diagrams.net" modified="2021-12-19T01:00:02.449Z" agent="5.0 (Windows NT 10.0; Win64; x64) AppleWebKit/537.36 (KHTML, like Gecko) Chrome/96.0.4664.110 Safari/537.36" etag="GNgAd4SH_y06SiZ0yO8J" version="15.8.8" type="github">
  <diagram id="cWx7zZAdpymzuyDaDfrL" name="Page-1">
    <mxGraphModel dx="868" dy="520" grid="1" gridSize="10" guides="1" tooltips="1" connect="1" arrows="1" fold="1" page="1" pageScale="1" pageWidth="850" pageHeight="1100" math="0" shadow="0">
      <root>
        <mxCell id="0" />
        <mxCell id="1" parent="0" />
        <mxCell id="YSN4TqrZ9hSnahMlcnak-5" style="rounded=0;orthogonalLoop=1;jettySize=auto;html=1;exitX=0.5;exitY=0.5;exitDx=0;exitDy=0;exitPerimeter=0;" edge="1" parent="1" source="YSN4TqrZ9hSnahMlcnak-1" target="YSN4TqrZ9hSnahMlcnak-2">
          <mxGeometry relative="1" as="geometry" />
        </mxCell>
        <mxCell id="YSN4TqrZ9hSnahMlcnak-6" style="edgeStyle=none;rounded=0;orthogonalLoop=1;jettySize=auto;html=1;exitX=0.5;exitY=0.5;exitDx=0;exitDy=0;exitPerimeter=0;entryX=0;entryY=0.5;entryDx=0;entryDy=0;" edge="1" parent="1" source="YSN4TqrZ9hSnahMlcnak-1" target="YSN4TqrZ9hSnahMlcnak-3">
          <mxGeometry relative="1" as="geometry" />
        </mxCell>
        <mxCell id="YSN4TqrZ9hSnahMlcnak-7" style="edgeStyle=none;rounded=0;orthogonalLoop=1;jettySize=auto;html=1;exitX=0.5;exitY=0.5;exitDx=0;exitDy=0;exitPerimeter=0;entryX=0;entryY=0.5;entryDx=0;entryDy=0;" edge="1" parent="1" source="YSN4TqrZ9hSnahMlcnak-1" target="YSN4TqrZ9hSnahMlcnak-4">
          <mxGeometry relative="1" as="geometry" />
        </mxCell>
        <mxCell id="YSN4TqrZ9hSnahMlcnak-1" value="Actor" style="shape=umlActor;verticalLabelPosition=bottom;verticalAlign=top;html=1;outlineConnect=0;" vertex="1" parent="1">
          <mxGeometry x="110" y="130" width="30" height="60" as="geometry" />
        </mxCell>
        <mxCell id="YSN4TqrZ9hSnahMlcnak-2" value="Login" style="ellipse;whiteSpace=wrap;html=1;" vertex="1" parent="1">
          <mxGeometry x="260" y="60" width="120" height="80" as="geometry" />
        </mxCell>
        <mxCell id="YSN4TqrZ9hSnahMlcnak-3" value="Create user account" style="ellipse;whiteSpace=wrap;html=1;" vertex="1" parent="1">
          <mxGeometry x="260" y="150" width="120" height="80" as="geometry" />
        </mxCell>
        <mxCell id="YSN4TqrZ9hSnahMlcnak-4" value="Logout" style="ellipse;whiteSpace=wrap;html=1;" vertex="1" parent="1">
          <mxGeometry x="260" y="240" width="120" height="80" as="geometry" />
        </mxCell>
      </root>
    </mxGraphModel>
  </diagram>
</mxfile>
